<svg width="100%" height="100%" id="svg" viewBox="0 0 1440 690" xmlns="http://www.w3.org/2000/svg" class="transition duration-300 ease-in-out delay-150"><path d="M 0,700 C 0,700 0,233 0,233 C 97.46411483253587,205.77511961722487 194.92822966507174,178.55023923444975 286,202 C 377.07177033492826,225.44976076555025 461.7511961722488,299.5741626794258 548,311 C 634.2488038277512,322.4258373205742 722.066985645933,271.1531100478469 822,230 C 921.933014354067,188.8468899521531 1033.9808612440193,157.8133971291866 1139,160 C 1244.0191387559807,162.1866028708134 1342.0095693779904,197.59330143540672 1440,233 C 1440,233 1440,700 1440,700 Z" stroke="none" stroke-width="0" fill="#e14ed2" fill-opacity="0.53" class="transition-all duration-300 ease-in-out delay-150 path-0"></path><path d="M 0,700 C 0,700 0,466 0,466 C 72.89952153110048,508.5933014354067 145.79904306220095,551.1866028708134 238,534 C 330.20095693779905,516.8133971291866 441.7033492822966,439.8468899521531 558,408 C 674.2966507177034,376.1531100478469 795.3875598086124,389.42583732057415 895,425 C 994.6124401913876,460.57416267942585 1072.7464114832537,518.4497607655502 1160,529 C 1247.2535885167463,539.5502392344498 1343.6267942583731,502.7751196172249 1440,466 C 1440,466 1440,700 1440,700 Z" stroke="none" stroke-width="0" fill="#e14ed2" fill-opacity="1" class="transition-all duration-300 ease-in-out delay-150 path-1"></path></svg>